<svg width="87" height="87" viewBox="0 0 87 87" fill="none" xmlns="http://www.w3.org/2000/svg">
    <g clip-path="url(#clip0_2_244)">
        <path d="M66 22H22V66H66V22Z" fill="#F7DF1E"/>
        <path d="M51.557 56.3752C52.4433 57.8223 53.5964 58.886 55.6357 58.886C57.3489 58.886 58.4434 58.0297 58.4434 56.8466C58.4434 55.4288 57.3189 54.9267 55.4332 54.1018L54.3995 53.6583C51.4159 52.3872 49.4338 50.7949 49.4338 47.4285C49.4338 44.3276 51.7966 41.9669 55.4891 41.9669C58.1179 41.9669 60.0078 42.8818 61.3697 45.2774L58.15 47.3447C57.4411 46.0736 56.6764 45.5728 55.4891 45.5728C54.278 45.5728 53.5105 46.3411 53.5105 47.3447C53.5105 48.5851 54.2787 49.0872 56.0527 49.8555L57.0863 50.2983C60.5994 51.8048 62.5829 53.3406 62.5829 56.7935C62.5829 60.5161 59.6586 62.5554 55.7314 62.5554C51.8915 62.5554 49.4108 60.7256 48.1969 58.3272L51.557 56.3752ZM36.9511 56.7335C37.6006 57.8858 38.1915 58.8601 39.6121 58.8601C40.9705 58.8601 41.8274 58.3286 41.8274 56.262V42.203H45.962V56.3179C45.962 60.5992 43.4519 62.5477 39.7881 62.5477C36.4776 62.5477 34.5604 60.8345 33.5854 58.7711L36.9511 56.7335Z" fill="black"/>
    </g>
    <circle cx="43.5" cy="43.5" r="43.5" fill="url(#paint0_linear_2_244)" fill-opacity="0.1"/>
    <defs>
        <linearGradient id="paint0_linear_2_244" x1="43.5" y1="0" x2="43.5" y2="87" gradientUnits="userSpaceOnUse">
            <stop stop-color="white"/>
            <stop offset="1" stop-color="#C4C4C4" stop-opacity="0"/>
        </linearGradient>
        <clipPath id="clip0_2_244">
            <rect width="44" height="44" fill="white" transform="translate(22 22)"/>
        </clipPath>
    </defs>
</svg>
