<svg width="87" height="87" viewBox="0 0 87 87" fill="none" xmlns="http://www.w3.org/2000/svg">
    <circle cx="43.5" cy="43.5" r="43.5" fill="url(#paint0_linear_2_249)" fill-opacity="0.1"/>
    <g clip-path="url(#clip0_2_249)">
        <path d="M43.8198 19C31.1267 19 31.9193 24.5333 31.9193 24.5333L31.9334 30.2658H44.0462V31.9869H27.1223C27.1223 31.9869 19 31.061 19 43.9355C19 56.81 26.0893 56.3534 26.0893 56.3534H30.3203V50.3791C30.3203 50.3791 30.0922 43.2527 37.2964 43.2527C44.5006 43.2527 49.3101 43.2527 49.3101 43.2527C49.3101 43.2527 56.0598 43.3624 56.0598 36.6952C56.0598 30.0281 56.0598 25.6713 56.0598 25.6713C56.0598 25.6713 57.0846 19 43.8198 19ZM37.1408 22.8548C38.3459 22.8548 39.3199 23.834 39.3199 25.0454C39.3199 26.2568 38.3459 27.236 37.1408 27.236C35.9357 27.236 34.9616 26.2568 34.9616 25.0454C34.9616 23.834 35.9357 22.8548 37.1408 22.8548Z" fill="url(#paint1_linear_2_249)"/>
        <path d="M44.1803 69.0001C56.8734 69.0001 56.0808 63.4668 56.0808 63.4668L56.0666 57.7343H43.9539V56.0131H60.8777C60.8777 56.0131 69.0001 56.9391 69.0001 44.0646C69.0001 31.1901 61.9107 31.6467 61.9107 31.6467H57.6798V37.6209C57.6798 37.6209 57.9078 44.7474 50.7036 44.7474C43.4994 44.7474 38.69 44.7474 38.69 44.7474C38.69 44.7474 31.9402 44.6377 31.9402 51.3048C31.9402 57.972 31.9402 62.3288 31.9402 62.3288C31.9402 62.3288 30.9154 69.0001 44.1803 69.0001ZM50.8593 65.1452C49.6542 65.1452 48.6801 64.1661 48.6801 62.9547C48.6801 61.7432 49.6542 60.7641 50.8593 60.7641C52.0644 60.7641 53.0384 61.7432 53.0384 62.9547C53.0384 64.1661 52.0644 65.1452 50.8593 65.1452Z" fill="url(#paint2_linear_2_249)"/>
    </g>
    <defs>
        <linearGradient id="paint0_linear_2_249" x1="43.5" y1="0" x2="43.5" y2="87" gradientUnits="userSpaceOnUse">
            <stop stop-color="white"/>
            <stop offset="1" stop-color="#C4C4C4" stop-opacity="0"/>
        </linearGradient>
        <linearGradient id="paint1_linear_2_249" x1="23.8051" y1="23.3704" x2="48.6582" y2="48.1768" gradientUnits="userSpaceOnUse">
            <stop stop-color="#387EB8"/>
            <stop offset="1" stop-color="#366994"/>
        </linearGradient>
        <linearGradient id="paint2_linear_2_249" x1="39.014" y1="39.2337" x2="65.6999" y2="64.667" gradientUnits="userSpaceOnUse">
            <stop stop-color="#FFE052"/>
            <stop offset="1" stop-color="#FFC331"/>
        </linearGradient>
        <clipPath id="clip0_2_249">
            <rect width="50" height="50" fill="white" transform="translate(19 19)"/>
        </clipPath>
    </defs>
</svg>
