<svg width="87" height="87" viewBox="0 0 87 87" fill="none" xmlns="http://www.w3.org/2000/svg">
    <path d="M73.3333 43.8123C73.3333 39.8472 68.3678 36.0895 60.7549 33.7593C62.5117 26 61.7309 19.8266 58.2905 17.8502C57.4974 17.3866 56.5702 17.167 55.5576 17.167V19.8876C56.1188 19.8876 56.5702 19.9974 56.9484 20.2048C58.6077 21.1565 59.3275 24.7799 58.7663 29.4404C58.6321 30.5872 58.4125 31.7951 58.144 33.0273C55.7528 32.4417 53.142 31.9903 50.3969 31.6975C48.7499 29.4404 47.0418 27.3908 45.3216 25.5973C49.2989 21.9007 53.0322 19.8754 55.5698 19.8754V17.1548C52.2147 17.1548 47.8227 19.546 43.3818 23.6941C38.9409 19.5704 34.5488 17.2036 31.1937 17.2036V19.9242C33.7192 19.9242 37.4647 21.9373 41.4419 25.6095C39.7339 27.403 38.0259 29.4404 36.4032 31.6975C33.646 31.9903 31.0351 32.4417 28.6439 33.0395C28.3633 31.8195 28.1559 30.636 28.0095 29.5014C27.4361 24.8409 28.1437 21.2175 29.7907 20.2536C30.1567 20.034 30.6325 19.9364 31.1937 19.9364V17.2158C30.1689 17.2158 29.2417 17.4354 28.4365 17.899C25.0082 19.8754 24.2396 26.0366 26.0086 33.7715C18.4201 36.1139 13.479 39.8594 13.479 43.8123C13.479 47.7774 18.4445 51.535 26.0574 53.8653C24.3006 61.6246 25.0814 67.798 28.5219 69.7744C29.3149 70.238 30.2421 70.4576 31.2669 70.4576C34.622 70.4576 39.0141 68.0664 43.455 63.9183C47.8959 68.042 52.2879 70.4088 55.643 70.4088C56.6678 70.4088 57.595 70.1892 58.4003 69.7256C61.8285 67.7491 62.5971 61.588 60.8281 53.8531C68.3922 51.5228 73.3333 47.7652 73.3333 43.8123ZM57.4486 35.6747C56.9972 37.2486 56.436 38.8712 55.8016 40.4938C55.3014 39.5178 54.7768 38.5418 54.2034 37.5658C53.6422 36.5898 53.0444 35.6381 52.4465 34.7109C54.179 34.9671 55.8504 35.2843 57.4486 35.6747ZM51.8609 48.668C50.9093 50.315 49.9333 51.8766 48.9207 53.3285C47.1028 53.4871 45.2606 53.5725 43.4062 53.5725C41.5639 53.5725 39.7217 53.4871 37.9161 53.3407C36.9034 51.8888 35.9152 50.3394 34.9636 48.7046C34.0364 47.1064 33.1946 45.4837 32.426 43.8489C33.1824 42.2141 34.0364 40.5792 34.9514 38.981C35.903 37.334 36.879 35.7723 37.8917 34.3205C39.7095 34.1619 41.5517 34.0765 43.4062 34.0765C45.2484 34.0765 47.0906 34.1619 48.8963 34.3083C49.9089 35.7601 50.8971 37.3096 51.8487 38.9444C52.7759 40.5426 53.6178 42.1653 54.3864 43.8001C53.6178 45.4349 52.7759 47.0698 51.8609 48.668ZM55.8016 47.082C56.4604 48.7168 57.0216 50.3516 57.4852 51.9376C55.887 52.3281 54.2034 52.6575 52.4587 52.9137C53.0566 51.9743 53.6544 51.0104 54.2156 50.0222C54.7768 49.0462 55.3014 48.058 55.8016 47.082ZM43.4306 60.0996C42.296 58.9284 41.1613 57.623 40.0389 56.1955C41.1369 56.2443 42.2593 56.2809 43.394 56.2809C44.5408 56.2809 45.6754 56.2565 46.7856 56.1955C45.6876 57.623 44.553 58.9284 43.4306 60.0996ZM34.3536 52.9137C32.6212 52.6575 30.9497 52.3403 29.3515 51.9498C29.8029 50.376 30.3641 48.7534 30.9985 47.1308C31.4987 48.1068 32.0234 49.0828 32.5968 50.0588C33.1702 51.0348 33.7558 51.9865 34.3536 52.9137ZM43.3696 27.525C44.5042 28.6962 45.6388 30.0016 46.7612 31.4291C45.6632 31.3803 44.5408 31.3437 43.4062 31.3437C42.2593 31.3437 41.1247 31.3681 40.0145 31.4291C41.1125 30.0016 42.2472 28.6962 43.3696 27.525ZM34.3414 34.7109C33.7436 35.6503 33.1458 36.6142 32.5846 37.6024C32.0234 38.5784 31.4987 39.5544 30.9985 40.5304C30.3397 38.8956 29.7785 37.2608 29.3149 35.6747C30.9131 35.2965 32.5968 34.9671 34.3414 34.7109ZM23.3002 49.9856C18.9813 48.1434 16.1875 45.7277 16.1875 43.8123C16.1875 41.8969 18.9813 39.469 23.3002 37.639C24.3494 37.1876 25.4962 36.785 26.6797 36.4068C27.3751 38.798 28.2901 41.2868 29.4247 43.8367C28.3023 46.3743 27.3995 48.851 26.7163 51.23C25.5084 50.8518 24.3616 50.437 23.3002 49.9856ZM29.8639 67.4197C28.2047 66.4681 27.4849 62.8447 28.0461 58.1842C28.1803 57.0373 28.3999 55.8295 28.6683 54.5973C31.0595 55.1829 33.6704 55.6343 36.4154 55.9271C38.0625 58.1842 39.7705 60.2338 41.4907 62.0272C37.5135 65.7239 33.7802 67.7491 31.2425 67.7491C30.6935 67.7369 30.2299 67.6271 29.8639 67.4197ZM58.8029 58.1232C59.3763 62.7837 58.6687 66.4071 57.0216 67.3709C56.6556 67.5905 56.1798 67.6881 55.6186 67.6881C53.0932 67.6881 49.3477 65.6751 45.3704 62.0028C47.0784 60.2094 48.7865 58.172 50.4091 55.9149C53.1664 55.6221 55.7772 55.1707 58.1684 54.5729C58.4491 55.8051 58.6687 56.9885 58.8029 58.1232ZM63.5 49.9856C62.4507 50.437 61.3039 50.8396 60.1205 51.2178C59.4251 48.8266 58.5101 46.3377 57.3754 43.7879C58.4979 41.2502 59.4007 38.7736 60.0839 36.3946C61.2917 36.7728 62.4385 37.1876 63.5121 37.639C67.831 39.4812 70.6249 41.8969 70.6249 43.8123C70.6127 45.7277 67.8188 48.1556 63.5 49.9856Z" fill="#61DAFB"/>
    <path d="M43.3944 49.3878C46.4736 49.3878 48.9699 46.8916 48.9699 43.8123C48.9699 40.7331 46.4736 38.2368 43.3944 38.2368C40.3151 38.2368 37.8188 40.7331 37.8188 43.8123C37.8188 46.8916 40.3151 49.3878 43.3944 49.3878Z" fill="#61DAFB"/>
    <circle cx="43.5" cy="43.5" r="43.5" fill="url(#paint0_linear_2_239)" fill-opacity="0.1"/>
    <defs>
        <linearGradient id="paint0_linear_2_239" x1="43.5" y1="0" x2="43.5" y2="87" gradientUnits="userSpaceOnUse">
            <stop stop-color="white"/>
            <stop offset="1" stop-color="#C4C4C4" stop-opacity="0"/>
        </linearGradient>
    </defs>
</svg>
